<?xml version="1.0" encoding="UTF-8"?>
<svg version="1.1" xmlns="http://www.w3.org/2000/svg" width="1350" height="1350">
<path d="M0 0 C7.07748726 5.50321728 10.51336052 13.60424448 13.1796875 21.97265625 C14.70468895 25.51065961 15.19232601 26.18526089 18.0546875 28.34765625 C25.42094226 34.0786959 28.85830802 44.70537841 30.7421875 53.59765625 C31.17097469 58.06482655 31.20734248 62.48752129 31.1796875 66.97265625 C31.19966797 68.11476563 31.21964844 69.256875 31.24023438 70.43359375 C31.23143516 85.92021265 25.14627244 99.23654484 14.40063477 110.32202148 C11.32597237 113.38035372 8.35501538 116.18910433 4.7421875 118.59765625 C5.2812158 124.20922455 6.09682089 129.6303942 7.25317383 135.14575195 C9.41063497 145.47081276 11.36410976 155.73796668 8.890625 166.19921875 C8.08512281 172.37326433 11.46019659 177.74459528 14.0546875 183.16015625 C19.75203107 195.36465449 24.55395455 205.74933416 20.1796875 219.28515625 C16.871194 227.43989376 11.66216685 232.87060714 3.7421875 236.59765625 C3.0821875 236.59765625 2.4221875 236.59765625 1.7421875 236.59765625 C1.79439453 237.63212891 1.79439453 237.63212891 1.84765625 238.6875 C1.98124084 243.32479365 2.08241068 247.32803472 0.3046875 251.66015625 C-2.26274438 258.28967518 -1.88085726 265.56697675 -2.12231445 272.58251953 C-2.2578125 274.59765625 -2.2578125 274.59765625 -2.90234375 277.7890625 C-3.33652749 281.21959116 -2.62412719 283.16933358 -1.3203125 286.34765625 C0.7421875 291.46545286 0.7421875 291.46545286 0.7421875 293.59765625 C1.639375 293.2109375 2.5365625 292.82421875 3.4609375 292.42578125 C15.67057081 287.28288056 28.3863871 283.05006186 41.7421875 282.59765625 C42.89589844 282.55769531 44.04960938 282.51773437 45.23828125 282.4765625 C66.29171206 282.12184662 86.5873939 284.9225404 105.5300293 294.5378418 C108.40482777 295.93082436 110.15365039 296.72834349 113.328125 296.0234375 C116.12512037 294.3714904 118.84623067 292.64170468 121.5546875 290.84765625 C136.49324002 281.35527069 153.7008115 277.04106899 171.3046875 277.22265625 C172.43326172 277.21105469 173.56183594 277.19945312 174.72460938 277.1875 C182.45471597 277.21417087 189.34085373 278.38657389 196.7421875 280.59765625 C196.72647705 279.19858032 196.72647705 279.19858032 196.71044922 277.77124023 C196.67620127 274.28423552 196.65120816 270.79741167 196.63232422 267.31030273 C196.62231626 265.80604212 196.6087057 264.30180072 196.59130859 262.79760742 C196.56682941 260.62543982 196.55565227 258.45353121 196.546875 256.28125 C196.53116455 254.32529907 196.53116455 254.32529907 196.51513672 252.32983398 C196.7421875 248.59765625 196.7421875 248.59765625 197.81689453 245.24243164 C200.05660654 236.42009375 196.87218947 227.11175743 194.80078125 218.4765625 C194.51364761 217.25484848 194.22651398 216.03313446 193.93067932 214.7743988 C193.17394865 211.55733171 192.4121449 208.34152988 191.6472168 205.12640381 C190.56520927 200.57589825 189.48972099 196.02386684 188.41798401 191.47093201 C187.84843776 189.0528182 187.2754159 186.63551986 186.69859314 184.21913147 C186.44155106 183.13047287 186.18450897 182.04181427 185.91967773 180.92016602 C185.69175034 179.96215591 185.46382294 179.00414581 185.22898865 178.0171051 C184.7421875 175.59765625 184.7421875 175.59765625 184.7421875 172.59765625 C180.72257961 173.97939646 177.47782428 175.99244943 174 178.37890625 C168.49505927 181.35043135 162.86693817 181.89877755 156.71875 181.86328125 C155.97313812 181.8651947 155.22752625 181.86710815 154.45932007 181.86907959 C152.89117086 181.87043266 151.32301011 181.86679797 149.75488281 181.85839844 C147.38059757 181.84771658 145.00707409 181.85830775 142.6328125 181.87109375 C129.9661749 181.87758626 129.9661749 181.87758626 124.41015625 180.41796875 C120.89797276 179.26859598 120.89797276 179.26859598 118.31640625 180.57421875 C117.69378906 181.11820313 117.07117188 181.6621875 116.4296875 182.22265625 C106.42080155 189.73362746 94.8951674 191.01100505 82.7421875 189.59765625 C72.42948412 187.36720521 62.63388893 181.4711334 56.7421875 172.59765625 C52.91207916 165.35482318 51.57523678 159.34753766 51.6171875 151.16015625 C51.61332031 150.40927734 51.60945313 149.65839844 51.60546875 148.88476562 C51.61101649 145.73087529 51.65532596 142.9575112 52.3984375 139.87890625 C52.86912478 136.75525428 51.89147923 135.25951191 50.3671875 132.53515625 C45.77329004 124.20711308 45.49154937 114.95225 47.3203125 105.66015625 C54.50142534 83.72512067 80.43266595 49.1199547 101.1796875 38.47265625 C118.25778754 30.76359626 137.09390961 36.90049421 153.7421875 42.59765625 C155.21765251 43.09671182 156.69324529 43.59538977 158.16894531 44.09375 C176.39499711 50.26737856 194.50010362 56.7725162 212.4921875 63.59765625 C213.53206818 63.98936005 213.53206818 63.98936005 214.59295654 64.38897705 C237.78760892 73.15167922 251.4778349 83.43507381 264.8671875 104.34765625 C265.83313843 105.84256592 265.83313843 105.84256592 266.81860352 107.36767578 C268.80026708 110.43982341 270.77300895 113.51749348 272.7421875 116.59765625 C273.62898193 117.98452637 273.62898193 117.98452637 274.53369141 119.39941406 C277.41404508 123.90998768 280.28560633 128.42607482 283.15234375 132.9453125 C286.95836088 138.9435955 290.78614273 144.92783607 294.6171875 150.91015625 C295.61866821 152.47419189 295.61866821 152.47419189 296.64038086 154.06982422 C297.99682761 156.18803947 299.35335456 158.30620338 300.70996094 160.42431641 C302.72383492 163.56899854 304.73706007 166.7140949 306.75 169.859375 C307.73867065 171.40419556 307.73867065 171.40419556 308.74731445 172.98022461 C310.07674511 175.0577549 311.40600956 177.13539156 312.73510742 179.21313477 C316.10120105 184.47458664 319.47093415 189.73364321 322.84765625 194.98828125 C326.82646406 201.18254542 330.78935005 207.38679135 334.7421875 213.59765625 C335.32097656 214.50467285 335.89976562 215.41168945 336.49609375 216.34619141 C366.2482561 263.10575283 401.46024845 332.3126916 391.12890625 390.0234375 C384.26559465 410.91572082 362.01245002 426.08257582 343.484375 435.9140625 C331.33330233 442.04770403 318.17277224 446.91950776 304.6171875 448.41015625 C296.64874961 449.92397371 292.38395911 455.37584934 287.05371094 461.05395508 C280.84770999 467.65711207 274.77897081 472.37590469 266.7421875 476.59765625 C266.01773438 476.97857422 265.29328125 477.35949219 264.546875 477.75195312 C244.08044657 488.31030291 224.51997802 493.03835264 201.4296875 492.97265625 C200.70540558 492.97211243 199.98112366 492.9715686 199.2348938 492.9710083 C188.22946173 492.93306952 178.22188497 492.2230651 167.7421875 488.59765625 C167.10716309 488.39398437 166.47213867 488.1903125 165.81787109 487.98046875 C154.76518304 484.43046039 144.70650165 479.14280151 134.57299805 473.53393555 C132.59807651 472.46606164 132.59807651 472.46606164 129.7421875 471.59765625 C129.75789795 472.34635986 129.7736084 473.09506348 129.78979492 473.86645508 C130.06537148 489.05107211 130.14495242 503.7453364 126.7421875 518.59765625 C126.54351074 519.46551758 126.34483398 520.33337891 126.14013672 521.22753906 C121.43393061 541.1028874 113.50690097 558.74970487 103.7421875 576.59765625 C103.06630111 577.92633974 102.39372328 579.25686419 101.7421875 580.59765625 C102.4021875 580.78328125 103.0621875 580.96890625 103.7421875 581.16015625 C116.63080849 587.33595381 120.97140885 600.94944558 125.4609375 613.59765625 C126.74028695 617.25797371 127.99401152 620.92660883 129.2421875 624.59765625 C129.90339641 626.52558549 130.56493799 628.45340067 131.22680664 630.38110352 C132.50873609 634.12294682 133.78324263 637.86719312 135.05126953 641.61376953 C136.05960926 644.59260094 137.07481842 647.56857631 138.10888672 650.53857422 C146.70361012 675.24524017 146.70361012 675.24524017 141.2421875 688.51953125 C131.96830186 707.5503174 117.88434984 735.28497393 96.7421875 742.59765625 C93.711746 743.34765449 90.65858338 743.95125516 87.59375 744.54296875 C86.27205559 744.80242531 86.27205559 744.80242531 84.92366028 745.06712341 C76.6475657 746.66537936 68.33567163 747.97923201 60.00582886 749.26034546 C-0.2037295 758.60472056 -59.28104719 772.68257712 -117.70330811 789.84777832 C-157.17596859 801.43502671 -157.17596859 801.43502671 -177.3828125 804.28515625 C-178.2289209 804.40479736 -179.0750293 804.52443848 -179.94677734 804.64770508 C-195.04297146 806.62619317 -210.1832313 806.80454685 -225.3828125 806.78515625 C-226.33446289 806.78421967 -227.28611328 806.78328308 -228.26660156 806.78231812 C-264.5005559 806.70505454 -322.57615245 804.90189097 -351.41796875 779.7109375 C-374.51474964 755.63510231 -388.24359049 706.28121157 -392.9921875 674.01953125 C-394.22751864 665.63931187 -396.07554019 661.9076413 -402.4375 656.296875 C-417.3549666 642.01990904 -425.3303382 621.16849588 -430.2578125 601.59765625 C-430.45286377 600.87779541 -430.64791504 600.15793457 -430.84887695 599.41625977 C-432.90440916 590.84372478 -432.69669465 582.04918559 -432.6953125 573.28515625 C-432.69671234 572.43994415 -432.69811218 571.59473206 -432.69955444 570.72390747 C-432.68143844 557.43069841 -431.62810369 545.24593633 -427.2578125 532.59765625 C-426.94553711 531.62022461 -426.94553711 531.62022461 -426.62695312 530.62304688 C-423.18197743 519.86446583 -418.11734488 512.51752769 -409.2578125 505.59765625 C-409.68191406 505.03820312 -410.10601562 504.47875 -410.54296875 503.90234375 C-428.07169069 479.94000299 -432.58256706 451.32036183 -428.82568359 422.25439453 C-425.47352509 404.7578341 -416.39810499 387.53609946 -404.2578125 374.59765625 C-403.14019531 373.3446875 -403.14019531 373.3446875 -402 372.06640625 C-386.96425819 355.98858332 -364.38749671 344.29754501 -342.26147461 343.10473633 C-332.25691702 342.5342224 -327.42313643 339.36606999 -320.73388672 332.10888672 C-318.22770047 329.54300963 -315.41414709 327.39894647 -312.5703125 325.22265625 C-311.98088867 324.76826172 -311.39146484 324.31386719 -310.78417969 323.84570312 C-309.561482 322.90456062 -308.33733551 321.96529764 -307.11181641 321.02783203 C-305.27386941 319.61004252 -303.45790284 318.16779123 -301.64453125 316.71875 C-292.45912324 309.44917924 -282.87108377 302.84531832 -273.1328125 296.34765625 C-272.19586548 295.72082443 -272.19586548 295.72082443 -271.23999023 295.08132935 C-270.00547558 294.25711046 -268.76894748 293.43589898 -267.53038025 292.61778259 C-266.29493529 291.79772947 -265.06638135 290.9672052 -263.84474182 290.12672424 C-260.74410246 288.03436795 -257.86524144 286.36892005 -254.32983398 285.12451172 C-248.477384 282.85725649 -244.59126904 280.36611512 -241.79589844 274.5625 C-238.50016272 265.74826727 -236.29343249 256.63230936 -234.11688232 247.48931885 C-233.20946846 243.72621122 -232.24141436 239.97888081 -231.27539062 236.23046875 C-230.18570554 231.99975321 -229.10054018 227.76907082 -228.07063293 223.52334595 C-226.43067608 216.8327841 -224.61827231 210.38089539 -222.09684753 203.96566772 C-220.14002111 198.44290974 -220.51364367 194.92949711 -222.1953125 189.41015625 C-227.0325232 171.70867986 -224.4980077 154.48993055 -215.91796875 138.2734375 C-213.45592876 134.30520835 -210.54409498 130.90338419 -207.2578125 127.59765625 C-208.01964844 127.45070313 -208.78148437 127.30375 -209.56640625 127.15234375 C-219.60591711 124.97147622 -227.13960681 121.37519126 -233.0390625 112.72265625 C-237.54201766 104.87134982 -238.42605143 96.87575327 -236.77734375 88.015625 C-229.8359203 64.51344509 -204.61164582 45.10220804 -184.0078125 33.84765625 C-161.55719264 22.04895887 -138.57870246 20.56081329 -113.72485352 20.12084961 C-91.43805509 19.710633 -72.73348202 16.54183804 -52.4296875 6.97265625 C-49.26949505 5.48876756 -46.12325401 4.13123119 -42.83984375 2.9453125 C-39.91928246 1.846519 -37.71948894 0.80485358 -35.1953125 -0.96484375 C-24.12047333 -8.09051547 -10.93210127 -6.79000753 0 0 Z " fill="#000000" transform="translate(695.2578125,275.40234375)"/>
<path d="M0 0 C9.91746848 9.22150578 14.95763906 21.84644675 15.55493164 35.23242188 C15.84375038 53.26633653 9.85446392 69.97991627 -2.6171875 83.24609375 C-10.05744971 90.08075322 -18.2031339 94.96435616 -27.703125 98.43359375 C-30.12742947 99.18572087 -30.12742947 99.18572087 -30.96875 101.40625 C-28.98875 101.73625 -27.00875 102.06625 -24.96875 102.40625 C-26.47787958 107.38637761 -29.52536849 110.64884942 -32.96875 114.40625 C-26.790077 113.7883827 -20.86872193 112.54223404 -14.82421875 111.125 C3.88259914 107.63760943 24.55655742 107.78757686 43.03125 112.40625 C43.67642578 112.56722168 44.32160156 112.72819336 44.98632812 112.89404297 C61.69887699 117.21324937 76.47151777 125.11493806 90.74536133 134.65795898 C105.65773114 144.57077215 121.48660316 152.14486151 139.69677734 152.72045898 C141.66996445 152.78294579 141.66996445 152.78294579 143.68301392 152.84669495 C145.11938976 152.88663368 146.55578164 152.92599934 147.9921875 152.96484375 C148.73138805 152.98590117 149.47058861 153.00695858 150.23218918 153.0286541 C167.88931332 153.52363521 185.54331252 153.52434709 203.20587158 153.47491455 C207.38463804 153.4644018 211.56341144 153.46005926 215.7421875 153.45507812 C223.83855941 153.44457753 231.93489963 153.42767766 240.03125 153.40625 C240.33457245 152.47618134 240.6378949 151.54611267 240.95040894 150.58786011 C242.02988029 147.41028193 243.32705633 144.49563693 244.7890625 141.4765625 C245.32845459 140.35886475 245.86784668 139.24116699 246.42358398 138.08959961 C247.28125366 136.32821655 247.28125366 136.32821655 248.15625 134.53125 C248.74762398 133.31200151 249.33885037 132.09268143 249.92993164 130.87329102 C251.62456548 127.38143752 253.32743144 123.89363145 255.03125 120.40625 C255.45873535 119.52791504 255.8862207 118.64958008 256.32666016 117.74462891 C258.50819363 113.26942265 260.7365123 108.82455615 263.03125 104.40625 C263.49144531 103.50648438 263.95164062 102.60671875 264.42578125 101.6796875 C270.98211868 89.77625067 281.8258625 80.16063454 292.03125 71.40625 C292.90523437 70.65601563 293.77921875 69.90578125 294.6796875 69.1328125 C297.03125 67.40625 297.03125 67.40625 299.71875 67.34375 C304.37553123 68.83743454 309.00506795 70.59323015 313.03125 73.40625 C314.16999661 76.02141801 314.11318158 77.16656007 313.18261719 79.88891602 C312.73563477 80.80342529 312.28865234 81.71793457 311.828125 82.66015625 C311.09916016 84.1905957 311.09916016 84.1905957 310.35546875 85.75195312 C309.83597656 86.81349609 309.31648438 87.87503906 308.78125 88.96875 C304.03913924 98.70159881 300.81340105 107.71334371 299.03125 118.40625 C310.58125 118.40625 322.13125 118.40625 334.03125 118.40625 C331.72125 115.76625 329.41125 113.12625 327.03125 110.40625 C322.78410691 105.25545944 321.46627549 103.26964399 322.03125 96.40625 C322.83938635 93.34971717 323.90768363 90.42190755 325.03125 87.46875 C325.31742188 86.68951172 325.60359375 85.91027344 325.8984375 85.10742188 C326.59933874 83.20330683 327.31390304 81.3042305 328.03125 79.40625 C331.99125 79.40625 335.95125 79.40625 340.03125 79.40625 C343.05459016 85.16994536 345.42098845 90.91411848 347.52734375 97.06640625 C347.84276627 97.9739415 348.15818878 98.88147675 348.48316956 99.81651306 C349.48345609 102.69885729 350.47612031 105.5837612 351.46875 108.46875 C352.13038066 110.37711916 352.79248631 112.28532371 353.45507812 114.19335938 C354.73734508 117.88843721 356.00741818 121.58737853 357.26904297 125.28955078 C358.36936965 128.5121238 359.50487436 131.71660941 360.68798828 134.90966797 C361.05658714 135.93174599 361.05658714 135.93174599 361.43263245 136.97447205 C362.07651018 138.75726735 362.73687816 140.53408378 363.39868164 142.31030273 C364.46849295 147.546226 362.28140352 151.36924104 359.52734375 155.7265625 C359.03806396 156.50386719 358.54878418 157.28117188 358.04467773 158.08203125 C357.52462158 158.89027344 357.00456543 159.69851563 356.46875 160.53125 C355.93515869 161.36785156 355.40156738 162.20445312 354.85180664 163.06640625 C350.54963942 169.74508832 346.06459547 176.25082115 341.03125 182.40625 C340.43123169 183.178479 340.43123169 183.178479 339.8190918 183.96630859 C337.22249174 186.05763007 334.86936355 186.19923598 331.5859375 186.6953125 C330.92537354 186.79949997 330.26480957 186.90368744 329.58422852 187.0110321 C328.13194367 187.23938633 326.67882552 187.46248636 325.22503662 187.68106079 C321.15574939 188.29561517 317.0940254 188.95728199 313.03125 189.61328125 C312.15483856 189.75390488 311.27842712 189.8945285 310.37545776 190.03941345 C245.79871385 200.46399356 181.85757056 214.77551668 119.31933594 233.98852539 C102.39157494 239.16962631 85.27514007 244.00760487 67.65625 246.15625 C66.84027344 246.26839844 66.02429688 246.38054687 65.18359375 246.49609375 C51.82303701 248.23521676 38.36450681 248.61691907 24.90625 248.59375 C24.19136414 248.59281342 23.47647827 248.59187683 22.7399292 248.59091187 C-8.86508343 248.50188984 -40.39761887 243.49037198 -70.40625 233.40625 C-71.44483154 233.06895874 -71.44483154 233.06895874 -72.50439453 232.72485352 C-79.88942742 230.11204175 -83.4045997 225.43312624 -86.71875 218.59375 C-87.22245117 217.56592407 -87.22245117 217.56592407 -87.73632812 216.51733398 C-98.23754331 194.45366203 -105.70210316 170.41527804 -111.46875 146.71875 C-111.85196411 145.15072632 -111.85196411 145.15072632 -112.24291992 143.55102539 C-113.36410967 138.75848108 -114.30672664 134.36605713 -113.96875 129.40625 C-110.66875 129.40625 -107.36875 129.40625 -103.96875 129.40625 C-104.74476563 128.91898438 -105.52078125 128.43171875 -106.3203125 127.9296875 C-129.38733447 112.79023394 -144.69402209 91.3731369 -150.96875 64.40625 C-154.74632879 44.62881896 -153.16627885 22.47282452 -143.96875 4.40625 C-139.04105315 5.01496549 -135.15308707 7.1526786 -130.84375 9.46875 C-130.08747314 9.87504639 -129.33119629 10.28134277 -128.55200195 10.69995117 C-112.06747633 19.71978594 -94.51768534 34.07598253 -87.96875 52.40625 C-87.30875 52.40625 -86.64875 52.40625 -85.96875 52.40625 C-85.91267578 51.42398438 -85.91267578 51.42398438 -85.85546875 50.421875 C-84.58503138 32.78521509 -78.79305925 17.87183732 -65.96875 5.40625 C-65.35515625 4.77203125 -64.7415625 4.1378125 -64.109375 3.484375 C-46.29620159 -13.71980103 -19.29926464 -15.62321423 0 0 Z " fill="#FEFEFE" transform="translate(444.96875,803.59375)"/>
<path d="M0 0 C2.72736267 0.69907519 5.38798053 1.52345621 8.06640625 2.39160156 C9.12811035 2.72675781 10.18981445 3.06191406 11.28369141 3.40722656 C23.93194042 7.49361031 36.43285943 12.02497976 48.94140625 16.51660156 C50.00673584 16.89878845 51.07206543 17.28097534 52.16967773 17.67474365 C63.0467544 21.58631902 73.89880645 25.56589035 84.66796875 29.76660156 C85.46842621 30.07154541 86.26888367 30.37648926 87.09359741 30.69067383 C94.64675711 33.68569187 100.30306676 37.46979143 105.00390625 44.26660156 C105.61661377 45.14964966 105.61661377 45.14964966 106.24169922 46.05053711 C112.56091406 55.27457084 118.48337746 64.77306724 124.46972656 74.21435547 C127.82025486 79.49139852 131.19413512 84.75343798 134.56640625 90.01660156 C135.8972463 92.09595768 137.22797524 94.17538492 138.55859375 96.25488281 C141.25052612 100.46110933 143.94332097 104.66678202 146.63671875 108.87207031 C154.14826009 120.60151994 161.64669948 132.33908212 169.1171875 144.09472656 C171.48342392 147.81744299 173.8566158 151.5356099 176.234375 155.25097656 C189.75770436 176.39559589 189.75770436 176.39559589 195.56640625 186.51660156 C196.02756836 187.32000977 196.48873047 188.12341797 196.96386719 188.95117188 C215.10632138 220.80965195 226.28514207 254.22958581 232.44140625 290.32910156 C232.65684082 291.57425537 232.87227539 292.81940918 233.09423828 294.10229492 C236.28471351 313.70640388 236.28471351 313.70640388 231.75390625 320.14160156 C217.12299042 336.58675095 195.9367196 347.97876306 174.56640625 352.51660156 C173.19764705 352.58663265 171.82740374 352.63128963 170.45703125 352.65332031 C158.94573475 353.10998394 152.92612188 357.98077843 145.25390625 366.20410156 C144.38378906 367.17331543 143.51367188 368.1425293 142.6171875 369.14111328 C134.30967971 378.36076298 124.9598253 384.52235846 113.50390625 389.32910156 C112.83617187 389.61479004 112.1684375 389.90047852 111.48046875 390.19482422 C88.83390177 399.60743894 63.00335222 399.1006936 40.37890625 390.20410156 C29.75577235 385.47630249 20.41430919 380.07158911 11.56640625 372.51660156 C10.2825 371.56333984 10.2825 371.56333984 8.97265625 370.59082031 C6.45515676 368.42070306 5.19727951 366.38095549 3.56640625 363.51660156 C4.33082031 363.49678223 5.09523438 363.47696289 5.8828125 363.45654297 C39.80349613 362.53301052 69.78491801 358.53174005 95.12109375 334.04785156 C100.44085907 328.38776455 104.62013755 322.19099815 108.56640625 315.51660156 C104.47540453 315.51660156 102.02663135 317.57058165 98.69140625 319.70410156 C73.22349057 335.39716532 39.27621425 338.77635173 10.30688477 332.36376953 C1.78311544 330.26187016 -6.49871573 327.20652551 -14.49072266 323.58422852 C-18.68909227 321.70707438 -18.68909227 321.70707438 -23.11328125 322.31738281 C-23.83773437 322.81625 -24.5621875 323.31511719 -25.30859375 323.82910156 C-29.35747826 326.51660156 -29.35747826 326.51660156 -31.43359375 326.51660156 C-30.0254255 318.51035482 -27.88729578 310.79914107 -25.55859375 303.01660156 C-25.05005859 301.27830078 -25.05005859 301.27830078 -24.53125 299.50488281 C-18.16707164 278.08930163 -7.75553044 260.79534937 12.08203125 249.23925781 C28.49009384 241.12719996 46.23724441 238.7903145 63.8671875 244.12988281 C75.06586023 248.32790691 84.10454165 253.98888588 92.56640625 262.51660156 C93.47390625 263.36222656 94.38140625 264.20785156 95.31640625 265.07910156 C100.76379445 270.98043878 104.85190445 277.41631493 108.56640625 284.51660156 C110.87640625 282.86660156 113.18640625 281.21660156 115.56640625 279.51660156 C116.10265625 279.95230469 116.63890625 280.38800781 117.19140625 280.83691406 C132.33199203 292.34176707 150.55749444 295.95339398 169.19140625 293.64160156 C171.65746056 293.30060568 174.10958298 292.92088894 176.56640625 292.51660156 C175.64121834 290.08565162 175.64121834 290.08565162 172.05859375 289.29003906 C170.52019752 288.82169905 168.98108296 288.35571464 167.44140625 287.89160156 C154.84792565 283.88612457 143.60488576 278.23030032 133.56640625 269.51660156 C132.76976562 268.86304688 131.973125 268.20949219 131.15234375 267.53613281 C114.51655749 253.39828969 101.74570156 231.49116261 99.56640625 209.51660156 C99.45772352 205.70272848 99.4716389 201.89409548 99.50390625 198.07910156 C99.50841797 197.06138672 99.51292969 196.04367187 99.51757812 194.99511719 C99.52928188 192.50221647 99.54567777 190.00944083 99.56640625 187.51660156 C101.87640625 187.51660156 104.18640625 187.51660156 106.56640625 187.51660156 C100.21308557 158.77890688 93.63587993 130.09918667 86.87890625 101.45410156 C86.69699738 100.68291489 86.5150885 99.91172821 86.32766724 99.11717224 C84.07822477 89.58262776 81.82443197 80.04911709 79.56640625 70.51660156 C76.87470598 71.55463622 74.47398697 72.57295478 72.00390625 74.07910156 C66.90645819 77.08528888 61.34916636 77.12709823 55.56640625 76.51660156 C47.26740528 74.1080587 42.85403989 69.48870763 38.19140625 62.39160156 C35.05999141 57.79703655 32.9218798 55.95845983 27.56640625 54.51660156 C26.57640625 54.51660156 25.58640625 54.51660156 24.56640625 54.51660156 C22.58042132 60.47455636 21.99595566 66.26552721 21.56640625 72.51660156 C22.32308594 72.76539063 23.07976562 73.01417969 23.859375 73.27050781 C26.83980606 74.64245227 27.98140538 75.82113524 29.87890625 78.45410156 C30.39066406 79.14375 30.90242187 79.83339844 31.4296875 80.54394531 C32.56640625 82.51660156 32.56640625 82.51660156 32.56640625 85.51660156 C28.56717313 85.72151722 24.56930294 85.84476938 20.56640625 85.95410156 C19.44105469 86.01275391 18.31570313 86.07140625 17.15625 86.13183594 C11.27464367 86.25221969 7.45349674 86.10714173 2.87890625 82.17675781 C-0.38337234 78.86601657 -2.34929411 76.54206928 -2.7421875 71.76269531 C-2.60048901 65.57185056 -1.23362721 59.59007741 0.07495117 53.55737305 C0.50791131 51.56063087 0.92785682 49.56147783 1.34570312 47.56152344 C3.4091095 37.83119506 3.4091095 37.83119506 4.56640625 35.51660156 C3.90640625 35.51660156 3.24640625 35.51660156 2.56640625 35.51660156 C2.28539062 36.23976563 2.004375 36.96292969 1.71484375 37.70800781 C0.63494883 40.34897531 -0.56634622 42.88652625 -1.80859375 45.45410156 C-6.31784948 55.33721959 -8.77375909 65.81503601 -10.43359375 76.51660156 C-16.6973556 75.03307902 -22.87414566 71.07604965 -27.43359375 66.51660156 C-27.82926495 57.38632635 -23.98065785 48.78790673 -20.87109375 40.39160156 C-20.34464472 38.94406939 -19.8192456 37.49615492 -19.29492188 36.04785156 C-18.01988215 32.53294661 -16.73072858 29.02342199 -15.43359375 25.51660156 C-24.58325484 34.4429853 -29.05155036 45.0225855 -32.42578125 57.11816406 C-33.22721457 59.82067176 -34.05858021 62.07626221 -35.43359375 64.51660156 C-48.50911017 56.71775293 -48.50911017 56.71775293 -50.74609375 51.39160156 C-49.49099653 35.82839606 -28.5477927 16.83186163 -18.43359375 5.51660156 C-17.79357422 4.68032227 -17.79357422 4.68032227 -17.140625 3.82714844 C-12.27039425 -2.00485057 -7.0485642 -1.40009602 0 0 Z " fill="#FEFEFE" transform="translate(822.43359375,341.4833984375)"/>
<path d="M0 0 C8.21778453 0.07304697 19.61177096 1.30588548 27 5 C27.4831543 7.22924805 27.4831543 7.22924805 27.82421875 10.26171875 C27.96182617 11.41897461 28.09943359 12.57623047 28.24121094 13.76855469 C28.46212402 15.70843262 28.46212402 15.70843262 28.6875 17.6875 C29.03206477 20.54141375 29.38784893 23.39386768 29.74609375 26.24609375 C29.84250153 27.01563385 29.9389093 27.78517395 30.03823853 28.57803345 C34.99474826 67.67222505 42.21706378 106.38535304 50 145 C48.59130781 144.68860389 47.18271806 144.37674433 45.77416992 144.06469727 C44.59754036 143.80427391 44.59754036 143.80427391 43.3971405 143.53858948 C38.96426089 142.54261018 34.54789988 141.47583712 30.13085938 140.41210938 C23.11891013 138.74381516 16.31863801 137.80937451 9.125 137.4375 C7.949375 137.37272461 7.949375 137.37272461 6.75 137.30664062 C4.83349351 137.20146649 2.91676667 137.10032075 1 137 C2.69191434 128.0410078 5.70442689 119.55282238 8.625 110.9375 C9.14625345 109.38881321 9.66709036 107.83998616 10.1875 106.29101562 C11.45353377 102.52570844 12.72519962 98.7623477 14 95 C7.99248695 98.96207122 2.01513233 102.93212652 -3.77563477 107.20703125 C-29.26806632 125.89138504 -65.23602599 148.54332457 -97 154 C-97 154.66 -97 155.32 -97 156 C-95.69933594 156.11730469 -94.39867187 156.23460937 -93.05859375 156.35546875 C-88.23597672 156.89403991 -83.71796482 157.97155662 -79.0625 159.3125 C-78.27907227 159.53180176 -77.49564453 159.75110352 -76.68847656 159.97705078 C-71.65603651 161.41921087 -66.86044672 163.10844992 -62.140625 165.3984375 C-56.62127695 166.94949516 -51.71892395 164.11261721 -46.875 161.6875 C-23.53559962 150.4401154 4.1926974 147.63982974 29 156 C33.1296837 157.4463868 37.0629101 159.09255699 41 161 C42.06863281 161.51433594 43.13726563 162.02867187 44.23828125 162.55859375 C67.00532072 174.14276307 85.08084848 194.88238571 93.23486328 219.14477539 C101.17754377 244.49046861 102.47514812 274.08857989 90.3215332 298.14794922 C82.63273723 312.57242745 70.16733378 321.24729373 55.01953125 326.71484375 C38.89520724 331.42493413 22.61522037 328.72061238 8 321 C-2.2804878 314.43902439 -2.2804878 314.43902439 -4 311 C-3.2251123 310.92483154 -2.45022461 310.84966309 -1.65185547 310.7722168 C18.34645675 308.95178701 18.34645675 308.95178701 38 305 C38 304.67 38 304.34 38 304 C36.77667969 303.79246094 35.55335938 303.58492187 34.29296875 303.37109375 C5.03772128 298.13637589 -20.47279321 285.53516961 -42 265 C-40.98235328 263.37300251 -39.96064749 261.74854393 -38.9375 260.125 C-38.36902344 259.22007812 -37.80054688 258.31515625 -37.21484375 257.3828125 C-36.00309127 255.48400813 -34.74628266 253.65305483 -33.41601562 251.83398438 C-28.66074811 245.309315 -25.05971047 238.54549895 -21.625 231.25 C-21.09261719 230.15300781 -20.56023437 229.05601562 -20.01171875 227.92578125 C-17.61113961 222.88639756 -15.72809377 218.57552992 -15 213 C-15.34144043 213.43231934 -15.68288086 213.86463867 -16.03466797 214.31005859 C-29.37730796 231.13921758 -46.04968819 251.61714104 -67 259 C-66.90912109 258.40687012 -66.81824219 257.81374023 -66.72460938 257.20263672 C-63.21331204 233.94254268 -63.12920392 212.61359098 -70 190 C-70.08451416 190.64735107 -70.16902832 191.29470215 -70.25610352 191.96166992 C-74.92053742 226.60433192 -86.33654533 254.7328701 -113 278 C-125.32560769 287.36363995 -138.47159527 292.23055283 -154 291 C-169.21885402 288.65104588 -183.0123801 280.94983179 -192.3125 268.625 C-203.96307317 251.5124881 -208.01359399 232.0386658 -204.58837891 211.53613281 C-200.49133883 193.35428283 -189.29255046 177.1255842 -173.7734375 166.8671875 C-163.50044766 160.55589436 -151.92768236 155.72773899 -139.6796875 156.0703125 C-129.02015589 156.37570892 -129.02015589 156.37570892 -119.94482422 151.45507812 C-117.54733522 149.04057417 -115.27977812 146.52642078 -113 144 C-111.28245654 142.50357741 -109.53240658 141.04354252 -107.75 139.625 C-104.61366759 137.1033708 -101.48323896 134.57811076 -98.38671875 132.0078125 C-85.60354812 121.433404 -72.29639265 111.74164697 -58.4375 102.625 C-57.67308594 102.11325729 -56.90867187 101.60151459 -56.12109375 101.07426453 C-51.49123054 98.04002977 -46.9065982 95.42621385 -41.85473633 93.1550293 C-32.3148382 88.63600685 -23.88286783 84.28624312 -19.46459961 74.265625 C-16.93227747 67.07818569 -15.23270507 59.73318063 -13.6942749 52.27838135 C-12.95476115 48.79802379 -12.10432543 45.34523723 -11.26171875 41.88867188 C-9.98913281 36.6204107 -8.77241164 31.34364849 -7.59960938 26.05224609 C-6.25415962 20.0269228 -4.77046637 14.05907513 -3.109375 8.11328125 C-2.80571014 7.01743965 -2.80571014 7.01743965 -2.49591064 5.89945984 C-1.1372927 1.1372927 -1.1372927 1.1372927 0 0 Z " fill="#FEFEFE" transform="translate(501,492)"/>
<path d="M0 0 C4.2658258 4.2658258 3.30599151 10.60365049 3.31689453 16.29321289 C3.09525462 29.20715833 -2.43969734 40.34223093 -11.125 49.75 C-23.26247629 61.2755027 -37.12535968 62.38099137 -53 62 C-50.06989434 59.01374248 -47.10296512 56.21974125 -43.875 53.5625 C-35.66776402 46.31758649 -28.25468607 37.13020494 -24 27 C-24.98226562 27.63615234 -24.98226562 27.63615234 -25.984375 28.28515625 C-28.97801139 30.20903275 -31.98527055 32.10934449 -35 34 C-35.97195313 34.60972656 -36.94390625 35.21945312 -37.9453125 35.84765625 C-55.01824429 46.20523487 -71.37537332 48.93338367 -91.01309204 49.38705444 C-120.0748587 49.90226793 -120.0748587 49.90226793 -147 60 C-147.495 60.99 -147.495 60.99 -148 62 C-147.26313965 62.11102051 -146.5262793 62.22204102 -145.76708984 62.33642578 C-119.15981162 66.38367255 -92.79334866 71.31246797 -66.5 77.0625 C-65.35670227 77.31167175 -64.21340454 77.56084351 -63.03546143 77.81756592 C-50.91729351 80.46681585 -38.82794577 83.22522633 -26.78125 86.18359375 C-25.79733276 86.42167252 -24.81341553 86.65975128 -23.79968262 86.90504456 C-13.40121115 89.50018208 -13.40121115 89.50018208 -9 92 C-7.6862793 94.55273438 -7.6862793 94.55273438 -7.07421875 97.59375 C-6.83509766 98.7075 -6.59597656 99.82125 -6.34960938 100.96875 C-6.13111328 102.1340625 -5.91261719 103.299375 -5.6875 104.5 C-5.44966797 105.634375 -5.21183594 106.76875 -4.96679688 107.9375 C-4.27378482 111.2854585 -3.63416657 114.64046879 -3 118 C-2.78682129 119.02996094 -2.57364258 120.05992187 -2.35400391 121.12109375 C-2.16112793 122.08144531 -1.96825195 123.04179687 -1.76953125 124.03125 C-1.59655518 124.87236328 -1.4235791 125.71347656 -1.24536133 126.58007812 C-0.96453907 129.34974008 -1.1690679 131.34233406 -2 134 C-3.806087 136.02621949 -5.80417159 137.36480863 -8 139 C-6.70952194 142.02134237 -5.41753758 145.04203814 -4.125 148.0625 C-3.72804932 148.99030273 -3.33109863 149.91810547 -2.92211914 150.87402344 C-0.68981717 156.0834523 1.55660816 161.28630386 3.82421875 166.48046875 C4.28135254 167.52775146 4.73848633 168.57503418 5.20947266 169.65405273 C6.10468348 171.70244113 7.00146943 173.75014193 7.89990234 175.79711914 C8.50825928 177.18918579 8.50825928 177.18918579 9.12890625 178.609375 C9.67140015 179.8463916 9.67140015 179.8463916 10.22485352 181.10839844 C11 183 11 183 11 184 C4.30324864 185.03026944 -2.2314676 185.10152799 -9 185 C-8.67 185.99 -8.34 186.98 -8 188 C-7.92026524 189.33525717 -7.89228662 190.67412083 -7.90234375 192.01171875 C-7.90484131 192.69451904 -7.90733887 193.37731934 -7.90991211 194.08081055 C-7.91901611 194.94101807 -7.92812012 195.80122559 -7.9375 196.6875 C-7.958125 199.430625 -7.97875 202.17375 -8 205 C-13.94 205 -19.88 205 -26 205 C-26 205.99 -26 206.98 -26 208 C-24.845 208.061875 -23.69 208.12375 -22.5 208.1875 C-17.67407241 208.78966565 -13.58452084 210.68364781 -10 214 C-9.27734375 216.16796875 -9.27734375 216.16796875 -9 218 C-13.67209049 219.43023178 -18.13103697 220.40380045 -23 221 C-22.61328125 221.4125 -22.2265625 221.825 -21.828125 222.25 C-16.23991859 228.44682295 -12.18172472 234.25949444 -12.61328125 242.890625 C-13.44446291 247.42434315 -15.83399153 250.13296806 -19.4375 252.8125 C-23.71950946 254.79684585 -26.89690547 255.37139816 -31.40234375 253.875 C-32.70896973 253.44489624 -32.70896973 253.44489624 -34.04199219 253.00610352 C-34.99750977 252.67408936 -35.95302734 252.3420752 -36.9375 252 C-37.95875977 251.65187256 -38.98001953 251.30374512 -40.03222656 250.94506836 C-60.60487678 243.78357011 -80.98936011 235.68569575 -100.9375 226.9375 C-102.06043457 226.45615601 -102.06043457 226.45615601 -103.20605469 225.96508789 C-114.14570355 221.01233079 -121.84896308 211.55385564 -126.42578125 200.58203125 C-128.41025185 194.42656425 -129.5630195 188.44546241 -130 182 C-131.01578125 182.03480469 -132.0315625 182.06960938 -133.078125 182.10546875 C-143.69960066 182.35928602 -155.66432574 182.56026271 -164 175 C-168.87328168 169.15628128 -172.15501896 163.37992417 -174 156 C-174.226875 155.154375 -174.45375 154.30875 -174.6875 153.4375 C-175.78908641 144.84512604 -174.7260278 135.53614856 -169.76171875 128.16015625 C-168.5 126.875 -168.5 126.875 -166 125 C-165.29875 124.4225 -164.5975 123.845 -163.875 123.25 C-158.64049187 119.76032791 -152.00794839 120.29441536 -146 121 C-137.19681563 124.33414019 -132.23469595 132.45079752 -128.25 140.5625 C-127 144 -127 144 -126.65234375 146.21875 C-126.10404316 148.9832908 -125.57107741 150.63195879 -124 153 C-121.59350689 154.28242285 -119.38658799 155.3098753 -116.86328125 156.27734375 C-115.87648376 156.67657043 -115.87648376 156.67657043 -114.86975098 157.0838623 C-113.25190291 157.73613756 -111.62661912 158.3699162 -110 159 C-110.05349609 158.08299316 -110.10699219 157.16598633 -110.16210938 156.22119141 C-111.34259948 131.07230955 -111.34259948 131.07230955 -107.65625 124.6640625 C-103.59045702 120.65473887 -98.28089762 118.89618323 -93 117 C-83.55099471 113.39385672 -83.55099471 113.39385672 -76 107 C-73.99219434 100.19480619 -74.94564633 92.91388839 -76 86 C-113.28785589 77.37658113 -149.84375136 73.60764225 -188 72 C-174.09816311 50.56946051 -154.63662875 34.53266842 -129.5 28.1875 C-116.37527377 25.56611983 -102.80821881 25.75935934 -89.46704102 25.52319336 C-75.52742297 25.26661712 -61.34199431 24.64874656 -47.8125 21 C-46.67288818 20.69993042 -46.67288818 20.69993042 -45.51025391 20.39379883 C-35.84972097 17.65271761 -26.83649802 13.22071835 -17.83154297 8.83862305 C-16 8 -16 8 -15 8 C-15 13.61 -15 19.22 -15 25 C-7.06124573 18.64899658 -3.18023806 9.54071419 0 0 Z " fill="#FEFEFE" transform="translate(676,300)"/>
<path d="M0 0 C-1.37277885 3.78395806 -3.11397052 6.88878949 -5.37890625 10.2109375 C-6.04809082 11.20005127 -6.71727539 12.18916504 -7.40673828 13.20825195 C-8.11813965 14.25327881 -8.82954102 15.29830566 -9.5625 16.375 C-26.71182035 41.89820429 -40.43897213 68.49951189 -52 97 C-64.12508634 126.81199071 -79.06102463 150.92446289 -105.24560547 170.67211914 C-106.92863482 171.88294477 -106.92863482 171.88294477 -108 173 C-99.62044313 173.7617779 -91.79564741 170.55125696 -84.4375 166.75 C-81 165 -81 165 -78 165 C-81.29899985 175.55679953 -90.84138433 184.31410724 -100.18359375 189.6484375 C-114.85506418 196.6891154 -130.48914055 197.87182528 -146 193 C-156.74134812 188.60925316 -165.24652721 182.75158748 -170 172 C-171.7081373 166.07509571 -172.83711608 160.05182862 -174 154 C-180.04262193 122.92157523 -189.41876789 93.37215919 -204.44921875 65.41796875 C-206.05565416 61.87733656 -206.24457695 61.404565 -205 58 C-192.39998369 42.34724815 -173.59575811 32.11982642 -153.8828125 29.37890625 C-150.27703138 28.98949843 -146.90486242 29.0899536 -143.29296875 29.39453125 C-132.77443171 30.56858235 -132.77443171 30.56858235 -122.90234375 27.77539062 C-119.36838483 24.59324641 -116.84126359 20.7253433 -114.25488281 16.76513672 C-102.76409829 0.6020293 -78.35946871 -7.95828974 -59.66796875 -11.43359375 C-38.66137462 -14.33228902 -18.89375017 -8.56218388 0 0 Z " fill="#FEFEFE" transform="translate(794,600)"/>
<path d="M0 0 C5.39727649 12.75719899 6.06760218 26.73581966 6.125 40.4375 C6.12967285 41.21947754 6.1343457 42.00145508 6.13916016 42.80712891 C6.11762139 50.44676456 6.11762139 50.44676456 5 53 C-4.87256477 57.96718498 -17.66683503 59.09967803 -28.4375 61.1875 C-30.25467773 61.54561334 -32.07173597 61.90433358 -33.88867188 62.26367188 C-53.78909712 66.18405599 -73.23937848 69.82603903 -91.75 58.875 C-97.50739988 54.94833352 -102.27535697 50.09359563 -107 45 C-104.79363932 42.58064149 -102.65745724 41.13415673 -99.74609375 39.65234375 C-98.90127441 39.21728516 -98.05645508 38.78222656 -97.18603516 38.33398438 C-96.27901855 37.87314453 -95.37200195 37.41230469 -94.4375 36.9375 C-88.32174933 33.79028643 -82.23974112 30.61551241 -76.26098633 27.21435547 C-58.20984062 16.9518799 -40.01622846 8.61969821 -20 3 C-18.13794922 2.46052734 -18.13794922 2.46052734 -16.23828125 1.91015625 C-10.6665051 0.39312309 -5.7718938 -0.33299387 0 0 Z " fill="#FEFEFE" transform="translate(615,835)"/>
<path d="M0 0 C0.66 0 1.32 0 2 0 C2.67482422 1.30710937 2.67482422 1.30710937 3.36328125 2.640625 C8.17966455 11.66767753 13.81199032 18.75834846 21 26 C21.69867188 26.73605469 22.39734375 27.47210937 23.1171875 28.23046875 C27.76416503 33.10020045 27.76416503 33.10020045 34.0078125 35.30297852 C39.21193922 35.33598439 43.41535157 34.37301092 48.34277344 32.76318359 C62.44987238 28.37966571 71.99762418 32.152202 85.14501953 37.81689453 C89.08687366 39.45040104 93.07199827 40.70005102 97.1875 41.8125 C98.23587036 42.09697998 98.23587036 42.09697998 99.30541992 42.38720703 C114.47642915 46.31626475 130.2326491 49.11326818 145.92578125 49.203125 C147.15825089 49.21344254 147.15825089 49.21344254 148.4156189 49.22396851 C151.04795838 49.24102873 153.68010819 49.24742102 156.3125 49.25 C157.65751083 49.25250763 157.65751083 49.25250763 159.0296936 49.25506592 C171.96481927 49.25651431 184.30135893 48.6006208 197 46 C199.57956976 45.57366042 202.16312667 45.19381007 204.75 44.8125 C206.50006325 44.54207565 208.25009203 44.27142733 210 44 C208.80894248 47.57317256 208.18609346 47.74713955 204.9765625 49.453125 C204.12989014 49.90421631 203.28321777 50.35530762 202.41088867 50.82006836 C201.03187378 51.52788452 201.03187378 51.52788452 199.625 52.25 C198.68052002 52.73799072 197.73604004 53.22598145 196.76293945 53.72875977 C158.78484781 72.93508607 116.01981336 76.39635964 75.31640625 63.82421875 C66.99484702 61.08349249 59.00084175 57.50299808 51.04858398 53.84448242 C47.30025183 52.29931725 44.08864721 51.88729799 40.04296875 51.89453125 C38.62081055 51.87229492 38.62081055 51.87229492 37.16992188 51.84960938 C35.1935055 51.82501742 33.21675122 51.81957637 31.24023438 51.83398438 C25.18447279 51.698683 21.68017318 50.92372485 17.3527832 46.56274414 C7.7272281 35.44323895 0 14.80418356 0 0 Z " fill="#000000" transform="translate(361,958)"/>
<path d="M0 0 C2.52505093 2.52505093 2.28338217 4.15857441 2.3293457 7.609375 C2.32378662 8.37765625 2.31822754 9.1459375 2.3125 9.9375 C2.30512817 11.13826172 2.30512817 11.13826172 2.29760742 12.36328125 C1.68753116 44.5002214 -10.59641432 80.33469778 -34 103 C-33.85704109 101.60386935 -33.71048442 100.20810692 -33.5625 98.8125 C-33.48128906 98.03519531 -33.40007813 97.25789062 -33.31640625 96.45703125 C-33 94 -33 94 -32.5078125 91.64453125 C-28.42302207 70.37219954 -32.66676599 48.47144791 -41.30078125 28.8828125 C-42 27 -42 27 -42 24 C-33.59179688 19.1953125 -33.59179688 19.1953125 -25.18359375 14.390625 C-24.57493469 14.04281982 -23.96627563 13.69501465 -23.33917236 13.33666992 C-11.66958618 6.66833496 -11.66958618 6.66833496 0 0 Z " fill="#FEFEFE" transform="translate(793,750)"/>
<path d="M0 0 C15.20122832 -0.77733554 31.33571398 1.47152007 43.4375 11.375 C46.86222433 14.58217012 48.9410075 17.79965531 51 22 C51.495 22.99 51.495 22.99 52 24 C52.91747096 31.44428966 52.50678668 37.13112763 47.82421875 43.15625 C41.97815408 49.06490637 35.03975851 49.94159982 27 50 C24.12135668 49.94901398 21.25015062 49.8368211 18.375 49.6875 C17.6634375 49.65309814 16.951875 49.61869629 16.21875 49.58325195 C14.47222349 49.46666111 12.73353096 49.24252562 11 49 C9.74698245 46.4939649 9.81457908 44.25316881 9.71020508 41.49194336 C9.14658269 26.66173033 5.49350863 13.68932572 0 0 Z " fill="#FEFEFE" transform="translate(637,834)"/>
<path d="M0 0 C4.80379355 1.61667845 9.56851433 3.34077374 14.33325195 5.06842041 C15.7718646 5.58522407 17.21066571 6.10150344 18.6496582 6.61724854 C22.12971015 7.86578613 25.60717943 9.12133952 29.08325195 10.38092041 C27.21331254 14.60027088 24.36670025 16.72169588 20.70825195 19.38092041 C13.51011894 24.26031579 13.51011894 24.26031579 9.08325195 31.38092041 C4.95620819 30.09569769 1.21203773 28.54850123 -2.61987305 26.55279541 C-3.68334961 25.9997876 -4.74682617 25.44677979 -5.8425293 24.87701416 C-7.48801758 24.01269775 -7.48801758 24.01269775 -9.16674805 23.13092041 C-10.7890332 22.28980713 -10.7890332 22.28980713 -12.4440918 21.43170166 C-19.07753067 17.96695012 -25.55102286 14.31616097 -31.91674805 10.38092041 C-21.53752573 -1.07201456 -14.5723217 -4.70663161 0 0 Z " fill="#000000" transform="translate(639.916748046875,421.61907958984375)"/>
<path d="M0 0 C5.07273942 3.10000742 7.27613072 6.34953959 9 12 C9.36095552 15.50928974 9.25284647 18.85543543 8.48828125 22.31640625 C7.90424085 25.52629228 7.90456494 28.55192947 7.9375 31.8125 C7.94652344 32.97394531 7.95554687 34.13539063 7.96484375 35.33203125 C7.97644531 36.21246094 7.98804688 37.09289062 8 38 C2.63623234 38.19450204 0.17974745 37.52956451 -4 34 C-6.3139653 30.64101811 -7 28.70875291 -7 24.625 C-5.92019718 20.71071479 -4.352476 18.006828 -2.05859375 14.69921875 C-0.82374311 13.05074347 -0.82374311 13.05074347 -1 11 C-3.82001327 9.58999336 -5.87007255 9.75451549 -9 10 C-11.71126384 11.42621684 -11.71126384 11.42621684 -14 13 C-14.66 13 -15.32 13 -16 13 C-15.58634898 7.72594947 -14.71026864 4.82270102 -11 1 C-7.50371579 -0.7481421 -3.81498182 -0.55875996 0 0 Z " fill="#000000" transform="translate(529,431)"/>
<path d="M0 0 C4.37874777 4.37874777 4.42101884 10.34974481 4.4375 16.25 C4.42255677 25.53273652 2.07911717 31.84794206 -4.1875 38.8125 C-10.4647841 44.58487212 -17.54685124 47.53038062 -26 48 C-24.9790625 46.9790625 -24.9790625 46.9790625 -23.9375 45.9375 C-23.47859375 45.47214844 -23.0196875 45.00679688 -22.546875 44.52734375 C-21.5203643 43.51379405 -20.46780466 42.52593279 -19.390625 41.56640625 C-9.71963316 32.6717555 -4.87361008 21.61363582 -2 9 C-1.77570312 8.04867188 -1.55140625 7.09734375 -1.3203125 6.1171875 C-0.8549769 4.08373469 -0.42263877 2.04275403 0 0 Z " fill="#FFFFFF" transform="translate(692,326)"/>
<path d="M0 0 C0.05382106 2.62527189 0.09358313 5.24944713 0.125 7.875 C0.14175781 8.62136719 0.15851562 9.36773438 0.17578125 10.13671875 C0.1933959 12.09194461 0.10320189 14.04742021 0 16 C-2 18 -2 18 -3.99169922 18.24804688 C-10.47202196 18.17017398 -16.72530498 17.49770526 -23.125 16.5 C-24.08148437 16.35691406 -25.03796875 16.21382812 -26.0234375 16.06640625 C-28.35002216 15.71741855 -30.67539156 15.36187667 -33 15 C-30.84791789 12.84791789 -29.28009382 12.13860182 -26.4921875 10.9765625 C-25.58726562 10.595 -24.68234375 10.2134375 -23.75 9.8203125 C-22.80125 9.42585937 -21.8525 9.03140625 -20.875 8.625 C-13.06841085 5.36870067 -13.06841085 5.36870067 -5.4453125 1.7109375 C-2 0 -2 0 0 0 Z " fill="#FEFEFE" transform="translate(612,911)"/>
<path d="M0 0 C0.639375 0.66 1.27875 1.32 1.9375 2 C5.7829235 5.85653744 9.90924419 9.40833422 14 13 C13 16 13 16 10.875 17.1875 C6.21715938 18.50384626 2.54362283 18.7382544 -1.875 16.625 C-4 15 -4 15 -5 13 C-5.68149325 7.09372518 -5.68149325 7.09372518 -3.8828125 4.20703125 C-2.65466073 2.74643267 -1.33262899 1.36594471 0 0 Z " fill="#FFFFFF" transform="translate(782,417)"/>
<path d="M0 0 C5.68374165 4.54699332 5.68374165 4.54699332 7.375 8.9375 C7.88160156 10.18853516 7.88160156 10.18853516 8.3984375 11.46484375 C9.07987832 14.33663008 8.77695677 16.17974782 8 19 C5.36 19 2.72 19 0 19 C0 12.73 0 6.46 0 0 Z " fill="#FFFFFF" transform="translate(652,908)"/>
</svg>
